<svg xmlns="http://www.w3.org/2000/svg" width="92.033" height="22.64" viewBox="0 0 92.033 22.64">
  <g id="Group_256" data-name="Group 256" transform="translate(-142 -148)">
    <rect id="Rectangle_97" data-name="Rectangle 97" width="92.033" height="22.64" rx="11.32" transform="translate(142 148)" fill="#b2fce4"/>
    <g id="Group_255" data-name="Group 255" transform="translate(156.055 153.177)">
      <path id="Path_73" data-name="Path 73" d="M1273.614,311.346l-1.924-1.1-1.951-1.119a1.94,1.94,0,0,0-2.905,1.683v.251a.384.384,0,0,0,.193.333l.905.519a.377.377,0,0,0,.564-.327v-.6a.383.383,0,0,1,.574-.333l1.783,1.023,1.778,1.02a.383.383,0,0,1,0,.665l-1.778,1.02-1.783,1.023a.383.383,0,0,1-.574-.333v-.3a1.94,1.94,0,0,0-2.905-1.683l-1.951,1.12-1.924,1.1a1.94,1.94,0,0,0,0,3.365l1.924,1.1,1.951,1.12a1.94,1.94,0,0,0,2.905-1.683v-.252a.384.384,0,0,0-.193-.333l-.905-.519a.377.377,0,0,0-.564.327v.6a.384.384,0,0,1-.574.332l-1.783-1.023-1.778-1.02a.383.383,0,0,1,0-.665l1.778-1.02,1.783-1.023a.384.384,0,0,1,.574.333v.3a1.94,1.94,0,0,0,2.905,1.683l1.951-1.119,1.924-1.1A1.94,1.94,0,0,0,1273.614,311.346Z" transform="translate(-1210.636 -308.862)"/>
      <g id="Group_252" data-name="Group 252" transform="translate(42.995 2.852)">
        <path id="Path_74" data-name="Path 74" d="M1140.347,360.1l-4.513,9.313h-1.872l1.686-3.48L1133,360.1h1.921l1.7,3.906,1.86-3.906Z" transform="translate(-1132.997 -360.098)"/>
      </g>
      <g id="Group_254" data-name="Group 254" transform="translate(0 0.144)">
        <g id="Group_253" data-name="Group 253">
          <path id="Path_75" data-name="Path 75" d="M365.84,361.385a1.8,1.8,0,1,0-1.8,1.892,1.807,1.807,0,0,0,1.8-1.892m.013,3.307v-.86a2.648,2.648,0,0,1-2.09.966,3.229,3.229,0,0,1-3.188-3.413,3.288,3.288,0,0,1,3.227-3.426,2.637,2.637,0,0,1,2.05.952v-.833h1.627v6.613Z" transform="translate(-360.576 -355.37)"/>
          <path id="Path_76" data-name="Path 76" d="M505.56,319.3c-.569,0-.727-.212-.727-.767v-2.936h1.045V314.15h-1.045v-1.614h-1.667v1.614h-2.147v-.658c0-.556.212-.767.794-.767h.366v-1.283h-.8c-1.376,0-2.024.45-2.024,1.825v.883h-.926v1.442h.926v5.172h1.667v-5.172h2.147v3.241c0,1.349.516,1.931,1.865,1.931h.86V319.3Z" transform="translate(-490.754 -311.442)"/>
          <path id="Path_77" data-name="Path 77" d="M648.268,360.789a1.585,1.585,0,0,0-1.64-1.375,1.637,1.637,0,0,0-1.667,1.375Zm-3.32,1.032a1.646,1.646,0,0,0,1.706,1.534,1.752,1.752,0,0,0,1.561-.86h1.706a3.452,3.452,0,0,1-6.706-1.1,3.419,3.419,0,1,1,6.838,0,2.186,2.186,0,0,1-.04.423Z" transform="translate(-627.483 -355.37)"/>
          <path id="Path_78" data-name="Path 78" d="M867.619,361.385a1.8,1.8,0,1,0-1.8,1.891,1.831,1.831,0,0,0,1.8-1.891m-5.238,6.006v-9.313h1.627v.86a2.619,2.619,0,0,1,2.09-.979,3.253,3.253,0,0,1,3.188,3.413,3.288,3.288,0,0,1-3.227,3.426,2.559,2.559,0,0,1-2-.886v3.48Z" transform="translate(-834.449 -355.37)"/>
          <path id="Path_79" data-name="Path 79" d="M1002.428,361.385a1.8,1.8,0,1,0-1.8,1.892,1.807,1.807,0,0,0,1.8-1.892m.013,3.307v-.86a2.648,2.648,0,0,1-2.09.966,3.229,3.229,0,0,1-3.188-3.413,3.288,3.288,0,0,1,3.227-3.426,2.637,2.637,0,0,1,2.05.952v-.833h1.627v6.613Z" transform="translate(-961.73 -355.37)"/>
          <path id="Path_80" data-name="Path 80" d="M782.111,358.727a1.733,1.733,0,0,1,2.143-.618V359.8a2.1,2.1,0,0,0-1.174-.3,1.163,1.163,0,0,0-.916,1.283v3.915h-1.68v-6.613h1.627Z" transform="translate(-757.111 -355.371)"/>
        </g>
      </g>
    </g>
  </g>
</svg>
