<svg xmlns="http://www.w3.org/2000/svg" width="36.001" height="29.245" viewBox="0 0 36.001 29.245">
  <path id="twitter-bird" d="M36,3.464a14.956,14.956,0,0,1-3.69,3.814q.022.423.022.956a21.215,21.215,0,0,1-3.5,11.614,22.439,22.439,0,0,1-4.228,4.81A18.848,18.848,0,0,1,18.7,28a21.543,21.543,0,0,1-7.383,1.246A20.558,20.558,0,0,1,0,25.926a15.97,15.97,0,0,0,1.762.1,14.481,14.481,0,0,0,9.174-3.164A7.166,7.166,0,0,1,6.647,21.39,7.259,7.259,0,0,1,4.04,17.735a7.383,7.383,0,0,0,3.335-.124,7.2,7.2,0,0,1-4.24-2.545,7.146,7.146,0,0,1-1.684-4.694v-.091A7.289,7.289,0,0,0,4.8,11.2,7.337,7.337,0,0,1,2.4,8.573,7.207,7.207,0,0,1,1.51,5.061a7.257,7.257,0,0,1,1-3.711A21.029,21.029,0,0,0,9.243,6.8,20.524,20.524,0,0,0,17.73,9.068a7.222,7.222,0,0,1-.194-1.681A7.115,7.115,0,0,1,19.7,2.166a7.389,7.389,0,0,1,10.613.165A14.71,14.71,0,0,0,35,.537a7.141,7.141,0,0,1-3.244,4.087A14.76,14.76,0,0,0,36,3.464Z" fill="#fff"/>
</svg>
