<svg xmlns="http://www.w3.org/2000/svg" width="34.201" height="34.201" viewBox="0 0 34.201 34.201">
  <g id="Group_22" data-name="Group 22" transform="translate(0 34.201) rotate(-90)">
    <path id="Path_8" data-name="Path 8" d="M17.1,34.2A17.1,17.1,0,1,0,0,17.1,17.1,17.1,0,0,0,17.1,34.2Z" fill="#eaeaea"/>
    <path id="Icon_ionic-ios-arrow-forward" data-name="Icon ionic-ios-arrow-forward" d="M5.787,7.242.3,1.763A1.031,1.031,0,0,1,.3.3,1.044,1.044,0,0,1,1.771.3L7.983,6.508a1.034,1.034,0,0,1,.03,1.428L1.775,14.187A1.036,1.036,0,1,1,.308,12.724Z" transform="translate(19.995 24.36) rotate(180)" fill="#c8c9c9"/>
  </g>
</svg>
