<svg xmlns="http://www.w3.org/2000/svg" width="12.803" height="12.346" viewBox="0 0 12.803 12.346">
  <g id="warning-alt" transform="translate(-2.248 -2.245)">
    <path id="Path_18" data-name="Path 18" d="M17,24.75a.686.686,0,1,0,.686.686A.686.686,0,0,0,17,24.75Z" transform="translate(-8.349 -13.359)" fill="#ff2b55"/>
    <path id="Path_19" data-name="Path 19" d="M16.875,12.375h.914V16.49h-.914Z" transform="translate(-8.683 -6.013)" fill="#ff2b55"/>
    <path id="Path_20" data-name="Path 20" d="M14.593,14.591H2.706a.457.457,0,0,1-.407-.668L8.243,2.494a.457.457,0,0,1,.814,0L15,13.924a.457.457,0,0,1-.407.668ZM3.46,13.677H13.838L8.649,3.7Z" fill="#ff2b55"/>
  </g>
</svg>
