<?xml version="1.0" standalone="no"?>
<!DOCTYPE svg PUBLIC "-//W3C//DTD SVG 20010904//EN"
 "http://www.w3.org/TR/2001/REC-SVG-20010904/DTD/svg10.dtd">
<svg version="1.0" xmlns="http://www.w3.org/2000/svg"
 width="300.000000pt" height="300.000000pt" viewBox="0 0 300.000000 300.000000"
 preserveAspectRatio="xMidYMid meet">
<metadata>
Created by potrace 1.14, written by Peter Selinger 2001-2017
</metadata>
<g transform="translate(0.000000,300.000000) scale(0.100000,-0.100000)"
fill="#000000" stroke="none">
<path d="M1353 2989 c-263 -23 -545 -134 -758 -298 -670 -514 -788 -1472 -262
-2126 444 -552 1200 -717 1837 -401 203 101 379 247 521 431 405 526 405 1284
0 1810 -260 338 -640 547 -1061 585 -127 11 -144 11 -277 -1z m-473 -1394 l0
-495 288 -2 287 -3 3 -67 3 -68 -366 0 -365 0 0 565 0 565 75 0 75 0 0 -495z
m1423 480 c90 -23 153 -70 190 -140 15 -29 22 -64 25 -132 4 -81 2 -97 -21
-145 -15 -35 -43 -70 -75 -98 l-50 -44 42 -26 c66 -42 78 -78 91 -275 9 -133
16 -177 30 -198 9 -15 21 -27 26 -27 5 0 9 -7 9 -15 0 -12 -17 -15 -94 -15
-59 0 -97 4 -102 11 -4 6 -12 91 -19 189 -19 280 -21 282 -352 288 l-223 4 0
-246 0 -246 -75 0 -75 0 0 565 0 565 308 0 c241 0 320 -3 365 -15z"/>
<path d="M1780 1764 l0 -196 218 4 c235 5 268 12 324 65 63 60 60 209 -5 270
-51 48 -80 53 -318 53 l-219 0 0 -196z"/>
</g>
</svg>
