<svg id="Layer_1" data-name="Layer 1" xmlns="http://www.w3.org/2000/svg" viewBox="0 0 563.53 276.26"><defs><style>.cls-1{fill:#231f20;}</style></defs><path d="M264.25,317.77c5.43-5.82,10.23-11.78,15.05-18a16.32,16.32,0,0,0-1.45-1.36c-2.68-2-5.3-4.13-8.09-6a90.3,90.3,0,0,1-20.46-19.33c-11.34-14.31-20.38-29.89-26.05-47.32a66.27,66.27,0,0,1-3.71-23c.25-7,2.14-13.39,6.8-18.77a10.69,10.69,0,0,1,4.44-3.36,12.27,12.27,0,0,1-.26,2.57,6,6,0,0,1-1.15,2.08c-3.84,4.43-5,9.81-5.5,15.4-.74,8.67.95,17,3.73,25.16,4.87,14.32,12.5,27.12,21.47,39.21,7.37,9.92,16.56,17.86,26.57,24.92a48.29,48.29,0,0,0,6.11,3.38,3.12,3.12,0,0,0,4-.75c1.61-1.78,3.33-3.48,4.82-5.36a121.22,121.22,0,0,1,9.89-11.12c3.1-3.07,5.71-6.64,8.62-9.91,4.17-4.69,8.33-9.39,12.63-14,8.71-9.26,17.49-18.44,26.26-27.63,10.55-11,21.39-21.79,33.32-31.36,9.78-7.84,20.12-14.8,31.73-19.68a70.82,70.82,0,0,1,29.38-6C453,167.87,460.33,173,464,183c2.6,7,3.06,14.38,2.8,21.79a133.25,133.25,0,0,1-4.54,29.37c-.13.49-.22,1-.32,1.49,0,.05,0,.12.16.38,2.5-.47,5.05-1,7.6-1.44a187.55,187.55,0,0,1,38.78-3.25c9.44.28,18.77,1.41,27.71,4.74a41.15,41.15,0,0,1,11.8,6.6,29.19,29.19,0,0,1,9.46,13.68,49.61,49.61,0,0,1,2.58,13,34.06,34.06,0,0,1-6.39,21.86c-3.6,5.13-8.17,9.3-13,13.25a99.7,99.7,0,0,1-26.15,15.32c-9.55,3.83-19,7.85-28.52,11.8-1.54.64-3,1.38-4.72,2.15a7.83,7.83,0,0,0,3.45,2.23,127.73,127.73,0,0,0,18.46,6.16,74.62,74.62,0,0,0,13.73,2.7c.93.07,1.87,0,3,0,.36-1.44.78-2.75,1-4.09a49.24,49.24,0,0,1,9-20.43c2.22-3.07,4.76-5.92,7.21-8.82a12.07,12.07,0,0,1,6-3.87c5.27-1.5,9.85,1.62,10.21,7.09.15,2.39-.12,4.81-.19,7.22,0,1.17-.1,2.33-.05,3.5a5.39,5.39,0,0,0,2,4.21,4.64,4.64,0,0,1,1.74,4.47c-.21,2-.53,3.91-.67,5.87a8.89,8.89,0,0,0,.23,3.22,2.11,2.11,0,0,0,3.62,1.06,6.67,6.67,0,0,0,1.74-2.21c1.48-3.09,2.85-6.23,4.23-9.36.92-2.07,1.72-4.19,2.72-6.21.57-1.17,1.32-2.49,2.87-2.34a3.43,3.43,0,0,1,2.78,2.53,25.5,25.5,0,0,1,1.26,5.5c.3,2.75.27,5.54.45,8.31a17.67,17.67,0,0,0,.57,3.22c.43,1.56.92,1.81,2.56,1.64a5.94,5.94,0,0,0,4.26-2.42c1-1.41,1.87-3,2.76-4.45.6-1,1.14-2,1.72-3a3,3,0,0,1,5-.12c.43.67.81,1.38,1.21,2.07a18.11,18.11,0,0,0,1.31,2.27,3.07,3.07,0,0,0,5.28-.3c.42-.68.7-1.45,1.08-2.15a25.85,25.85,0,0,1,1.7-3.05c1.62-2.27,3.21-2.47,5.34-.72.85.69,1.58,1.51,2.4,2.24a34,34,0,0,0,2.82,2.42,6,6,0,0,0,6,.79,32,32,0,0,1,4.59-1.41c1.94-.41,3,.21,3.91,2,.27.52.48,1.07.7,1.61,1.38,3.24,4,4.75,7.35,5a23.1,23.1,0,0,0,8.41-1.21c4.26-1.27,8.5-2.63,12.79-3.8a16.21,16.21,0,0,1,7.37-.41,3.25,3.25,0,0,1,2.91,2.56c.51,2.23,2.06,3.05,4.11,3.28,1.45.16,2.92.22,4.35.47.59.1,1.54.55,1.56.88a2.4,2.4,0,0,1-.86,1.78,11.75,11.75,0,0,1-10.55,2.08,6.41,6.41,0,0,1-2.85-1.9,5.67,5.67,0,0,0-7-1.52,37,37,0,0,1-9.08,2.33,18.15,18.15,0,0,0-4.39,1.31c-6.3,2.55-10.49,1.73-15.3-3.09-.57-.57-1.14-1.14-1.68-1.74a5.21,5.21,0,0,0-5.73-1.77,10.12,10.12,0,0,1-10.74-2.22,17.46,17.46,0,0,0-3.69-2c-.45.65-.79,1.1-1.08,1.58-.58.93-1.13,1.87-1.69,2.82-2.18,3.65-5.56,3.34-8.32,1.77-.76-.43-1.41-1-2.13-1.53s-1.47-.92-2.36-1.48c-1,1-1.91,1.9-2.84,2.81a42.58,42.58,0,0,1-3.9,3.82,8.2,8.2,0,0,1-12.28-2.46,7.16,7.16,0,0,1-1-4.18,9.89,9.89,0,0,0-.1-2.61,1.75,1.75,0,0,0-1-1.18,1.88,1.88,0,0,0-1.45.69,11.3,11.3,0,0,0-.9,2,30.47,30.47,0,0,1-2.86,5.36c-3.48,4.35-8.48,4.28-12.21.13a13.16,13.16,0,0,0-2.39-1.73,10.53,10.53,0,0,0-1.59,1.19c-2.37,2.74-5.7,3.42-9,4.09a41.44,41.44,0,0,1-12.23.3A221.35,221.35,0,0,1,479,342.27c-2.49-.81-4.9-1.86-7.47-2.85-.76,1.23-.72,2.79-.89,4.26-.38,3.34-.62,6.69-1,10a39.82,39.82,0,0,1-.8,4.31c-.7,3.05-1.44,6.09-2.18,9.14-.35,1.48-.93,2.76-2.82,3a6.05,6.05,0,0,1-.44-3.61c.53-4.13,1.17-8.24,1.67-12.37.58-4.78,1.06-9.57,1.57-14.36a9.07,9.07,0,0,0-.07-1.41c-.7-.08-1.34-.16-2-.21-6.26-.44-12.52-.93-18.78-1.29-2.92-.17-5.85,0-8.76-.18a30.52,30.52,0,0,1-6.47-.94c-3.1-.88-3.56-3.79-1.08-5.93a8,8,0,0,1,5.08-1.76c2.55-.07,5.12-.07,7.66.11,5.68.4,11.35,1,17,1.42a22.71,22.71,0,0,0,7.58-.4c.49-2.53,1-5.09,1.48-7.66q4.44-24.66,8.88-49.33a31.09,31.09,0,0,1,2.4-8.62c1.14-.27,1.65.11,1.77,1.25a34.31,34.31,0,0,1-.52,9.81c-1.53,8.47-3.16,16.93-4.78,25.38-1.71,9-2.95,18-3.78,27.1,0,.35,0,.71-.09,1.37.78-.1,1.47-.15,2.13-.29a174.17,174.17,0,0,0,41-14.94,128.21,128.21,0,0,0,24.55-15.55,58,58,0,0,0,11.63-12.44c4.7-7,6.05-14.61,3.62-22.76a24.68,24.68,0,0,0-8.21-11.92c-5.42-4.54-11.78-7.26-18.47-9.25a111.26,111.26,0,0,0-23.91-4.06,131,131,0,0,0-19.91,0,93.94,93.94,0,0,0-22.57,5.09,5,5,0,0,0-3,2.69c-2.32,4.72-4.7,9.4-7,14.13-6.75,13.84-16.69,25.11-28.26,35a48.55,48.55,0,0,1-11,7.12c-4.43,2.09-8.84,4.19-13.16,6.49a72.58,72.58,0,0,1-20.88,7c-4.08.78-8.21,1.27-12.32,1.9-.28,0-.56.13-1.06.24a27.3,27.3,0,0,0,.42,3.21,67.12,67.12,0,0,0,2.11,7.56c1,2.54,2.82,3,5.05,1.38a16.26,16.26,0,0,0,2-1.73c1-1,1.93-2,2.94-2.95,1.87-1.73,3.59-1.58,5.16.42.45.57.77,1.24,1.21,1.82.93,1.26,1.42,1.4,2.74.52a11.66,11.66,0,0,0,2.42-2.18c.85-1,1.53-2.14,2.29-3.2s1.4-2.06,2.21-3c1.86-2.14,3.18-2.14,4.9.15a23.18,23.18,0,0,1,2.1,3.82c1.41,2.87,1.9,3.1,4.94,2.19,1.68-.5,3.34-1.05,5-1.47a7.41,7.41,0,0,1,8,2.77,27.69,27.69,0,0,1,3,4.84,25.48,25.48,0,0,1,1.6,4.07c1.38,4.42,4.41,7.48,8.05,10.07a6.47,6.47,0,0,0,6,1.09,24.78,24.78,0,0,1,3.66-.55,7,7,0,0,1-8.59,6.09,16.72,16.72,0,0,1-5.25-2.59,23.63,23.63,0,0,1-8-10.49,39.33,39.33,0,0,0-2.7-5.72c-2.05-3.4-4.22-4.05-8-2.72-1.3.46-2.59,1-3.92,1.36a6.42,6.42,0,0,1-7.57-2.85,3.47,3.47,0,0,0-2.82-1.88c-.8,1-1.69,2.16-2.59,3.28a36.3,36.3,0,0,1-3.21,3.86c-1.81,1.72-3.7,2.12-6,0-2.5-2.32-2.56-2.24-5.24-.15a24.38,24.38,0,0,1-3,2.14,6.55,6.55,0,0,1-8.4-1.2c-.78-.77-1.43-1.66-2.2-2.44s-1.48-1.33-2.52-2.26c-.69.87-1.25,1.54-1.78,2.23s-1.31,1.59-1.85,2.45c-3.2,5.12-7.37,9.4-11.69,13.57a23,23,0,0,0-2.78,3.62c-.7,1-1.24,2.15-1.89,3.21a7.54,7.54,0,0,1-4.47,3.29,21.34,21.34,0,0,1-12.94.25,134.5,134.5,0,0,1-13.6-4.8,125.32,125.32,0,0,1-26.15-15c-4.36-3.3-8.95-6.31-13.49-9.37a39.1,39.1,0,0,0-4-2.15,1.71,1.71,0,0,0-2.31.52c-1.59,1.81-3.28,3.53-4.9,5.31-14.85,16.31-29.62,32.69-44.57,48.91-12.48,13.53-25.35,26.68-39.1,38.95a151.49,151.49,0,0,1-19.24,15.19,100.52,100.52,0,0,1-11.13,6.06c-5.39,2.54-9.5,1.29-12.82-3.71a34.92,34.92,0,0,1-2.82-5.43,150.76,150.76,0,0,1-7.73-24.84,266.8,266.8,0,0,1-6.53-42.14,187,187,0,0,1,.39-35c1.15-10.12,3.25-20,7.4-29.39a55.47,55.47,0,0,1,9.3-14.77,43.78,43.78,0,0,1,27.76-14.41c11.49-1.54,22.67.31,33.77,3.23a119.11,119.11,0,0,1,43,21.47c6.52,5.06,13.11,10,19.72,15C259,314.34,261.57,315.94,264.25,317.77ZM116.84,356.61a216.45,216.45,0,0,0,8.49,59.08,80.9,80.9,0,0,0,7.78,18.75c2,3.24,3.23,3.71,6.87,2.49a25.85,25.85,0,0,0,4-1.74,51.1,51.1,0,0,0,6-3.6c5.46-4,11-7.95,16.19-12.33A767.82,767.82,0,0,0,248.56,337c3.25-3.74,6.2-7.76,9.11-11.77,1.9-2.6,1.79-2.73-.62-4.76a250.36,250.36,0,0,0-45-30.65c-12.28-6.45-25.24-11.09-39.19-12.38a48.59,48.59,0,0,0-22,2.64c-9.49,3.59-16.41,10.16-21.61,18.69a75.7,75.7,0,0,0-8.43,20.82C117.83,331.59,116.77,343.78,116.84,356.61Zm293.6-74.92a4.55,4.55,0,0,1-.52-3.85,22.16,22.16,0,0,1,2.26-5.41,73.93,73.93,0,0,1,7-8.92c10.32-10.89,22.23-19.54,36.24-25.11a2.84,2.84,0,0,0,1.95-2.13c.11-.5.3-1,.43-1.47A102.16,102.16,0,0,0,460,192.68a41.2,41.2,0,0,0-4.31-13,13.71,13.71,0,0,0-11.54-7.55,58.54,58.54,0,0,0-27.29,3.69,94.22,94.22,0,0,0-18.95,10.43,186.11,186.11,0,0,0-24.63,20.34c-8.71,8.54-17.35,17.16-25.65,26.08-13.13,14.11-26.77,27.76-39.07,42.63-5,6-9.88,12.11-14.77,18.19-.85,1.06-1.51,2.27-2.36,3.56a21.34,21.34,0,0,0,2.25,1.71,48.32,48.32,0,0,0,4.5,2.24,112.2,112.2,0,0,0,18.36,5.72,71.05,71.05,0,0,0,13.59,2.19c3,.1,5.47-.73,6.85-3.65a7.19,7.19,0,0,1,.75-1.08,21.57,21.57,0,0,1,6.72-5.86c2.17-1.22,3.79-.7,4.87,1.51a21.65,21.65,0,0,1,1.22,3.5c.45,1.54.86,3.1,1.18,4.67a2.45,2.45,0,0,0,2.61,2.14c1.67.07,3.35.17,5,.13a144.5,144.5,0,0,0,20-2.32,83.89,83.89,0,0,0,26-8.72c5.66-3,11-6.61,16.49-10a37.07,37.07,0,0,0,8.91-7.7A194.91,194.91,0,0,0,452,251.27c.9-1.58,1.64-3.26,2.41-4.91a8.07,8.07,0,0,0,.36-1.6c-1.35.64-2.42,1.09-3.45,1.65-4.11,2.22-8.33,4.25-12.27,6.75-10.89,6.89-20.1,15.47-26,27.17A2.1,2.1,0,0,1,410.44,281.69ZM330.1,315.57c-1.13-.24-2-.49-2.83-.59a106.34,106.34,0,0,1-13.87-3,139.38,139.38,0,0,1-21.28-7.27c-1.4-.61-2.88-1-4.33-1.52a2.42,2.42,0,0,0-2.91.81c-4,4.76-8,9.46-12,14.19a14.59,14.59,0,0,0-1,1.43c-1.46,2.28-1.45,2.46.59,4.11,1,.82,2.07,1.61,3.15,2.36a238.18,238.18,0,0,0,38.28,21.51,73.93,73.93,0,0,0,15.51,5.22c.86.17,1.73.21,2.6.31a37.13,37.13,0,0,0-3.74-2.9,11.24,11.24,0,0,1-4.84-8.24,36.6,36.6,0,0,1,.19-7.83c.73-5.24,2.69-10.13,4.85-14.93Zm219.23,3.8c-.07-.66-.13-1.61-.29-2.55-.59-3.45-2.82-4.61-5.85-2.78a23.53,23.53,0,0,0-5,4.13,50.55,50.55,0,0,0-10.76,17.64,33.48,33.48,0,0,0-1.49,6.59c-.28,2,.09,2.32,2.12,2.83,6.44,1.61,14.45-2.38,17.41-8.83A46.17,46.17,0,0,0,549.33,319.37ZM328.39,337.06c.08,1.18.09,2.06.2,2.92a6.86,6.86,0,0,0,6,6.34,4.55,4.55,0,0,0,5.36-2.37,16.93,16.93,0,0,0,1.53-3.83c1.42-5.2,2.8-10.4,4.09-15.63a24.35,24.35,0,0,0,.66-5c.07-2-.76-3-2.79-3.19-1.8-.17-3.63-.11-5.45-.1a3.4,3.4,0,0,0-2.88,1.72A41.24,41.24,0,0,0,328.39,337.06Zm19.75-.4.53.34a12.65,12.65,0,0,0,2.62-1.8,65.68,65.68,0,0,0,9.85-15.64c.8-1.69.12-2.71-1.74-2.84a34.21,34.21,0,0,0-5.45.08,2.89,2.89,0,0,0-2.8,2.6c-.17.94-.29,1.87-.48,2.8-.84,4-1.71,8-2.5,12A13,13,0,0,0,348.14,336.66Zm-2-31.07a3.68,3.68,0,0,0-3.31.28,3,3,0,0,0-1.11,3.27c.39,1.2,1.47,1,2.36,1.07a1.82,1.82,0,0,0,2.16-1.89A19.17,19.17,0,0,0,346.12,305.59Z" transform="translate(-114.69 -167.61)"/><path d="M365.54,293.59c-.41-.43-.91-.72-1.05-1.14a48,48,0,0,1-1.54-5.22c-.43-2,.46-3.29,2.25-3.48,2.23-.25,3.67.83,3.73,2.93C369,289.5,367.72,291.68,365.54,293.59Z" transform="translate(-114.69 -167.61)"/><path class="cls-1" d="M236,405v26.08h20.72v2.38h-23.5V405Z" transform="translate(-114.69 -167.61)"/><path class="cls-1" d="M273.72,405h2.7v28.46h-2.7Z" transform="translate(-114.69 -167.61)"/><path class="cls-1" d="M327.05,405v28.46h-2.54l-24.39-24.83v24.83h-2.54V405h2.54l24.39,24.95V405Z" transform="translate(-114.69 -167.61)"/><path class="cls-1" d="M374.77,427.61a10.14,10.14,0,0,1-2.66,3.26,16.26,16.26,0,0,1-10.2,3.39c-9.51,0-16-6.25-16-14.92s6.29-15.2,16.17-15.2a18.29,18.29,0,0,1,10.64,3.15,15,15,0,0,1,3.87,4.35l-2.66,1.53a11.08,11.08,0,0,0-2.42-3.18,14.31,14.31,0,0,0-9.64-3.31c-7.86,0-13.06,5.53-13.06,12.54,0,7.26,5.2,12.5,13.39,12.5a13.55,13.55,0,0,0,9.23-3.39,10,10,0,0,0,3.38-7.34H359.62v-2.41h17.61v14.87h-2.46Z" transform="translate(-114.69 -167.61)"/><path class="cls-1" d="M398.15,405H425.4v2.38H400.93v10h22.62v2.37H400.93v11.37h25.64v2.38H398.15Z" transform="translate(-114.69 -167.61)"/><path class="cls-1" d="M466,405c1.94,0,4.27,0,6.25,1.09a7.61,7.61,0,0,1,3.59,6.69,7.46,7.46,0,0,1-2.74,6.05c-2.18,1.69-5.2,1.85-7.38,1.93l11.45,12.7h-3.83l-11.25-12.7h-13v12.7h-2.74V405Zm-16.93,13.34h15.28c2.9,0,5.48-.08,7.13-1.85a5.73,5.73,0,0,0,1.37-3.83,5.2,5.2,0,0,0-1.93-4.19c-1.45-1.13-3.27-1.13-4.84-1.13h-17Z" transform="translate(-114.69 -167.61)"/><path class="cls-1" d="M496.14,405h2.7v28.46h-2.7Z" transform="translate(-114.69 -167.61)"/><path class="cls-1" d="M520,405h27.25v2.38H522.78v10H545.4v2.37H522.78v11.37h25.64v2.38H520Z" transform="translate(-114.69 -167.61)"/></svg>